<svg id="Laag_1" data-name="Laag 1" xmlns="http://www.w3.org/2000/svg" xmlns:xlink="http://www.w3.org/1999/xlink" viewBox="0 0 344.5 344.5"><defs><style>.cls-1{fill:none;}.cls-2{clip-path:url(#clip-path);}.cls-3{clip-path:url(#clip-path-2);}.cls-4{fill:#1d1d1b;}</style><clipPath id="clip-path" transform="translate(49.13 49.13)"><circle class="cls-1" cx="118.6" cy="118.6" r="118.6"/></clipPath><clipPath id="clip-path-2" transform="translate(49.13 49.13)"><rect class="cls-1" x="4.53" y="-1.87" width="237.2" height="250" transform="translate(-51 123.13) rotate(-45)"/></clipPath></defs><g class="cls-2"><g class="cls-3"><rect class="cls-4" x="37.89" y="78.66" width="9.4" height="250" transform="translate(-82.41 138.89) rotate(-45)"/><rect class="cls-4" x="51.32" y="65.23" width="9.4" height="250" transform="translate(-68.98 144.46) rotate(-45)"/><rect class="cls-4" x="64.76" y="51.79" width="9.4" height="250" transform="translate(-55.54 150.02) rotate(-45)"/><rect class="cls-4" x="78.19" y="38.36" width="9.4" height="250" transform="translate(-42.11 155.59) rotate(-45)"/><rect class="cls-4" x="91.56" y="25" width="9.4" height="250" transform="translate(-28.74 161.12) rotate(-45)"/><rect class="cls-4" x="104.99" y="11.56" width="9.4" height="250" transform="translate(-15.31 166.69) rotate(-45)"/><rect class="cls-4" x="118.43" y="-1.87" width="9.4" height="250" transform="translate(-1.87 172.25) rotate(-45)"/><rect class="cls-4" x="131.86" y="-15.31" width="9.4" height="250" transform="translate(11.56 177.82) rotate(-45)"/><rect class="cls-4" x="145.3" y="-28.74" width="9.4" height="250" transform="translate(25 183.38) rotate(-45)"/><rect class="cls-4" x="158.66" y="-42.11" width="9.4" height="250" transform="translate(38.36 188.92) rotate(-45)"/><rect class="cls-4" x="172.09" y="-55.54" width="9.4" height="250" transform="translate(51.79 194.48) rotate(-45)"/><rect class="cls-4" x="185.53" y="-68.98" width="9.4" height="250" transform="translate(65.23 200.05) rotate(-45)"/><rect class="cls-4" x="198.96" y="-82.41" width="9.4" height="250" transform="translate(78.66 205.61) rotate(-45)"/></g></g></svg>