<svg id="Laag_1" data-name="Laag 1" xmlns="http://www.w3.org/2000/svg" xmlns:xlink="http://www.w3.org/1999/xlink" viewBox="0 0 344.5 344.5"><defs><style>.cls-1{fill:none;}.cls-2{clip-path:url(#clip-path);}.cls-3{clip-path:url(#clip-path-2);}.cls-4{fill:#1d1d1b;}</style><clipPath id="clip-path" transform="translate(49.13 58.18)"><circle class="cls-1" cx="118.6" cy="118.6" r="118.6"/></clipPath><clipPath id="clip-path-2" transform="translate(49.13 58.18)"><rect class="cls-1" x="-1.87" y="-4.53" width="250" height="237.2" transform="translate(-44.6 120.47) rotate(-45)"/></clipPath></defs><g class="cls-2"><g class="cls-3"><rect class="cls-4" x="78.67" y="189.91" width="250" height="9.4" transform="translate(-28.83 259.19) rotate(-45)"/><rect class="cls-4" x="65.23" y="176.48" width="250" height="9.4" transform="translate(-23.27 245.76) rotate(-45)"/><rect class="cls-4" x="51.79" y="163.04" width="250" height="9.4" transform="translate(-17.71 232.32) rotate(-45)"/><rect class="cls-4" x="38.36" y="149.61" width="250" height="9.4" transform="translate(-12.14 218.89) rotate(-45)"/><rect class="cls-4" x="25" y="136.24" width="250" height="9.4" transform="translate(-6.6 205.52) rotate(-45)"/><rect class="cls-4" x="11.56" y="122.81" width="250" height="9.4" transform="translate(-1.04 192.09) rotate(-45)"/><rect class="cls-4" x="-1.87" y="109.37" width="250" height="9.4" transform="translate(4.53 178.65) rotate(-45)"/><rect class="cls-4" x="-15.31" y="95.94" width="250" height="9.4" transform="translate(10.09 165.22) rotate(-45)"/><rect class="cls-4" x="-28.74" y="82.5" width="250" height="9.4" transform="translate(15.66 151.78) rotate(-45)"/><rect class="cls-4" x="-42.11" y="69.14" width="250" height="9.4" transform="translate(21.19 138.42) rotate(-45)"/><rect class="cls-4" x="-55.54" y="55.71" width="250" height="9.4" transform="translate(26.76 124.98) rotate(-45)"/><rect class="cls-4" x="-68.98" y="42.27" width="250" height="9.4" transform="translate(32.32 111.55) rotate(-45)"/><rect class="cls-4" x="-82.41" y="28.84" width="250" height="9.4" transform="translate(37.89 98.11) rotate(-45)"/></g></g></svg>