<svg xmlns="http://www.w3.org/2000/svg" xmlns:xlink="http://www.w3.org/1999/xlink" viewBox="0 0 250 237.2" style="enable-background:new 0 0 250 237.2" xml:space="preserve"><defs><path id="a" d="M0 0h250v237.2H0z"/></defs><clipPath id="b"><use xlink:href="#a" style="overflow:visible"/></clipPath><g style="clip-path:url(#b)"><path d="M0 0h250v9.4H0zm0 19h250v9.4H0zm0 19h250v9.4H0zm0 18.9h250v9.4H0zm0 19h250v9.4H0zm0 19h250v9.4H0zm0 19h250v9.4H0zm0 19h250v9.4H0zm0 19h250v9.4H0zm0 18.9h250v9.4H0zm0 19h250v9.4H0zm0 19h250v9.4H0zm0 19h250v9.4H0z" style="fill:#1d1d1b"/></g></svg>
