<svg id="Laag_1" data-name="Laag 1" xmlns="http://www.w3.org/2000/svg" xmlns:xlink="http://www.w3.org/1999/xlink" viewBox="0 0 603.95 603.95"><defs><style>.cls-1{fill:none;}.cls-2{clip-path:url(#clip-path);}.cls-3{fill:#1d1d1b;}</style><clipPath id="clip-path" transform="translate(192.79 162.29)"><rect class="cls-1" width="250" height="250"/></clipPath></defs><g class="cls-2"><rect class="cls-3" x="-266.46" y="22.21" width="525.76" height="9.41" transform="translate(172.71 167.64) rotate(-45)"/><rect class="cls-3" x="-253.93" y="34.74" width="525.76" height="9.41" transform="translate(167.52 180.17) rotate(-45)"/><rect class="cls-3" x="-241.4" y="47.27" width="525.76" height="9.41" transform="translate(162.33 192.7) rotate(-45)"/><rect class="cls-3" x="-228.87" y="59.8" width="525.76" height="9.41" transform="translate(157.14 205.23) rotate(-45)"/><rect class="cls-3" x="-216.34" y="72.33" width="525.76" height="9.41" transform="translate(151.95 217.76) rotate(-45)"/><rect class="cls-3" x="-203.81" y="84.86" width="525.76" height="9.41" transform="translate(146.76 230.29) rotate(-45)"/><rect class="cls-3" x="-191.28" y="97.39" width="525.76" height="9.41" transform="translate(141.57 242.82) rotate(-45)"/><rect class="cls-3" x="-178.75" y="109.92" width="525.76" height="9.41" transform="translate(136.38 255.35) rotate(-45)"/><rect class="cls-3" x="-166.22" y="122.45" width="525.76" height="9.41" transform="translate(131.19 267.88) rotate(-45)"/><rect class="cls-3" x="-153.69" y="134.98" width="525.76" height="9.41" transform="translate(126 280.41) rotate(-45)"/><rect class="cls-3" x="-141.16" y="147.51" width="525.76" height="9.41" transform="translate(120.81 292.94) rotate(-45)"/><rect class="cls-3" x="-128.63" y="160.04" width="525.76" height="9.41" transform="translate(115.62 305.47) rotate(-45)"/><rect class="cls-3" x="-116.1" y="172.57" width="525.76" height="9.41" transform="translate(110.43 318) rotate(-45)"/><rect class="cls-3" x="-103.57" y="185.1" width="525.76" height="9.41" transform="translate(105.24 330.53) rotate(-45)"/><rect class="cls-3" x="-91.04" y="197.63" width="525.76" height="9.41" transform="translate(100.05 343.06) rotate(-45)"/><rect class="cls-3" x="-78.51" y="210.16" width="525.76" height="9.41" transform="translate(94.86 355.59) rotate(-45)"/><rect class="cls-3" x="-65.99" y="222.69" width="525.76" height="9.41" transform="translate(89.67 368.12) rotate(-45)"/><rect class="cls-3" x="-53.46" y="235.22" width="525.76" height="9.41" transform="translate(84.48 380.65) rotate(-45)"/><rect class="cls-3" x="-40.93" y="247.75" width="525.76" height="9.41" transform="translate(79.29 393.17) rotate(-45)"/></g></svg>