<svg xmlns="http://www.w3.org/2000/svg" viewBox="0 0 604.2 603.7" fill="#1d1d1b" xmlns:v="https://vecta.io/nano"><path d="M.5 531.4l-.5-.5v32l.5.5zm0-60.3l-.5-.5v32.1l.5.5zm0-60.3l-.5-.5v32l.5.5zm0-60.4l-.5-.5v32l.5.5zm0-47.8V290l-.5-.5v32.1l.5.5z"/><path d="M.5 290v12.6V290zm-.1-60.4l-.4-.4v32.1l.4.4z"/><path d="M.5 229.7l-.1-.1v32.1l.1.1zm-.2-60.6l-.3-.3v32.1l.3.3z"/><path d="M.5 169.3l-.2-.2v32.1l.2.2zm-.3-60.7l-.2-.1v32l.2.2z"/><path d="M.5 109l-.3-.4v32.1l.3.3zM.1 48.1H0v32l.1.1z"/><path d="M.5 48.6l-.4-.5v32.1l.4.4zM0 1h0 0zm0 14.9v3.8h0z"/><path d="M.5 20.2V1H0h0v14.9 3.8zm.4 511.6l-.4-.4v32l.5.5z"/><path d="M1 563.9l39.3 39.2h32.1L.9 531.8zm-.2-92.5l-.3-.3v32.1l.4.3z"/><path d="M.9 503.5l99.8 99.6h32.2L.8 471.4zm-.2-92.6l-.2-.1v32l.2.2z"/><path d="M.7 443l160.6 160.1h32.2L.7 410.9zm-.1-92.6H.5v32l.1.2z"/><path d="M.6 382.6l221.3 220.5h32.2L.6 350.4zm-.1-80v19.5h0z"/><path d="M.5 302.6v19.5l282 281h32.1L.5 290zm0-40.8l342.4 341.3h32.2L.5 229.7zm0-60.4l403.1 401.7h32.1L.5 169.3zm0-60.4l463.7 462.1h32.1L.5 109zm0-60.4l524.3 522.5h32.1L.5 48.6zm584.8 522.5h16.8v-15.4L13.4 1H.5v19.2zm16.8-75.6L73.8 1H41.7l560.4 558.5zm0-60.4L134.4 1h-32.1l499.8 498.1zm0-60.4L195 1h-32.1l439.2 437.7zm0-60.3L255.5 1h-32.2l378.8 377.5zm0-60.3L316.1 1h-32.2l318.2 317.1zm0-60.4L376.6 1h-32.1l257.6 256.7zm0-60.4L437.3 1h-32.2l197 196.3zm0-60.4L497.9 1h-32.2l136.4 135.9zm0-60.3L558.3 1h-32.1l75.9 75.7z"/></svg>