<svg id="Laag_1" data-name="Laag 1" xmlns="http://www.w3.org/2000/svg" viewBox="0 0 77.44 33.96"><path d="M83.79,129.81h2.42c0,.82.42,1.66,3.5,1.66s3.72-.58,3.72-1.36c0-.4-.16-.7-.8-.84a29.29,29.29,0,0,0-3.48-.22,10.82,10.82,0,0,1-4.3-.72,2.14,2.14,0,0,1-1.06-2c0-2,2.14-3.34,5.92-3.34,4.7,0,5.7,1.68,5.7,3.54H93c0-1-.5-1.72-3.2-1.72-2.34,0-3.44.46-3.44,1.4,0,.4.2.68.84.82a25,25,0,0,0,3.54.26,12.67,12.67,0,0,1,3.92.56A2.24,2.24,0,0,1,96,130c0,1.52-1.14,3.26-6.28,3.26S83.79,131.29,83.79,129.81Z" transform="translate(-83.79 -119.09)"/><path d="M97.31,130.17c0-1.92,1.58-2.72,4.06-2.72h5.94v-.2c0-1.62-1.1-2.42-3.82-2.42s-3.42.72-3.42,1.56a1.25,1.25,0,0,0,0,.24H97.65a3.25,3.25,0,0,1,0-.36c0-1.92,1.8-3.26,5.92-3.26s6.32,1.72,6.32,4.48v5.6h-2.56c.06-.68.1-1.7.12-2.38h0c-.44,1.58-1.86,2.56-5.18,2.56C98.63,133.27,97.31,131.73,97.31,130.17Zm10-1.14V129H102c-1.5,0-2.32.16-2.32,1.1,0,.66.56,1.4,3.08,1.4C105.89,131.47,107.31,130.19,107.31,129Z" transform="translate(-83.79 -119.09)"/><path d="M111.39,123.21H114l0,2.92h0a4.33,4.33,0,0,1,4.58-3.12c2.66,0,4.1,1.22,4.46,3.1h0c.54-2.08,2.22-3.1,4.64-3.1,3.12,0,4.52,1.64,4.52,4.28v5.8h-2.56V128c0-1.84-.82-2.84-2.9-2.84a3.42,3.42,0,0,0-3.64,3.5v4.48h-2.56V128c0-1.84-.84-2.84-2.92-2.84a3.48,3.48,0,0,0-3.62,3.5v4.48h-2.56Z" transform="translate(-83.79 -119.09)"/><path d="M146.25,128.75h-10.2c.18,1.5,1.14,2.72,4.16,2.72,2.62,0,3.54-.78,3.7-1.6h2.34c-.12,1.72-1.82,3.42-6,3.42-5.22,0-6.74-2.6-6.74-5.06,0-3.16,2.42-5.22,6.58-5.22s6.2,1.88,6.2,4.94Zm-2.34-1.6c0-1.32-1.06-2.32-3.76-2.32-2.48,0-3.68.84-4,2.38h7.78Z" transform="translate(-83.79 -119.09)"/><path d="M147.46,128c0-2.78,2.27-5,6.37-5,2.78,0,4.3.78,4.82,2.14h0v-6.06h2.56v14h-2.56c0-.72.08-1.72.1-2.54h0c-.48,1.62-2,2.74-5,2.74C149.75,133.29,147.46,131.21,147.46,128Zm11.21.12v-.3c0-1.56-1.44-2.84-4.48-2.84-2.78,0-4.19,1.3-4.19,3,0,2,1.55,3.26,4.17,3.26C157.17,131.29,158.67,129.49,158.67,128.15Z" transform="translate(-83.79 -119.09)"/><path d="M84.05,139.21h2.56l0,2.5h0c.6-1.74,2.26-2.7,5-2.7,4.08,0,6.26,2,6.26,5,0,3.46-2.4,5.3-6.18,5.3-2.92,0-4.36-.84-5.1-2.3h0c0,.62.1,1.62.1,2.1v4H84.05Zm11.22,4.84c0-1.76-1.34-3-4.12-3s-4.5,1.46-4.54,3.3v.2c0,1.36,1.5,2.78,4.56,2.78C93.87,147.29,95.27,146.23,95.27,144.05Z" transform="translate(-83.79 -119.09)"/><path d="M99,144.17c0-2.6,1.92-5.16,6.78-5.16s6.78,2.56,6.78,5.16-1.88,5.12-6.78,5.12S99,146.79,99,144.17Zm11,0c0-1.64-1.14-3.16-4.22-3.16s-4.22,1.52-4.22,3.16,1.12,3.12,4.22,3.12S110,145.81,110,144.17Z" transform="translate(-83.79 -119.09)"/><path d="M114.06,135.09h2.57v14h-2.57Z" transform="translate(-83.79 -119.09)"/><path d="M118.21,146.17c0-1.92,1.58-2.72,4.06-2.72h5.94v-.2c0-1.62-1.1-2.42-3.82-2.42s-3.42.72-3.42,1.56a1.25,1.25,0,0,0,0,.24h-2.45c0-.18,0-.32,0-.36,0-1.92,1.8-3.26,5.92-3.26s6.32,1.72,6.32,4.48v5.6h-2.56c.06-.68.1-1.7.12-2.38h0c-.44,1.58-1.86,2.56-5.18,2.56C119.53,149.27,118.21,147.73,118.21,146.17Zm10-1.14V145h-5.34c-1.5,0-2.33.16-2.33,1.1,0,.66.57,1.4,3.09,1.4C126.79,147.47,128.21,146.19,128.21,145Z" transform="translate(-83.79 -119.09)"/><path d="M133.41,145.25v-4h-2v-2H133c.42,0,.55-.22.62-.74l.15-1.5H136v2.24h5.64v2H136v3.92c0,1.42.72,2.08,3.2,2.08a14.6,14.6,0,0,0,2.36-.22v1.94a10.57,10.57,0,0,1-2.64.3C134.77,149.23,133.41,147.53,133.41,145.25Z" transform="translate(-83.79 -119.09)"/><path d="M144,146.37h2.69v2.72H144Z" transform="translate(-83.79 -119.09)"/></svg>