<svg xmlns="http://www.w3.org/2000/svg" viewBox="0 0 15.7 147.7" fill="#fff" xmlns:v="https://vecta.io/nano"><path d="M7.4 39h.8v107.9h-.8z"/><path d="M7.494 146.909l7.637-7.637.566.566-7.637 7.637z"/><path d="M-.009 139.868l.566-.566 7.637 7.637-.566.566zm7.674 7.652l.212-.212.212.212-.212.212zM6.4 22.4c-.3.2-.4.5-.4.8s.2.6.4.6.3-.1.5-.5L7 23a2.73 2.73 0 0 1 .7-1.3c.3-.2.6-.3.9-.3.5 0 1 .2 1.3.6.4.4.6 1 .6 1.6 0 .8-.3 1.5-.9 2l-.9-.8c.4-.3.6-.7.6-1.2 0-.4-.2-.7-.6-.7a.47.47 0 0 0-.5.5l-.1.3c-.1.4-.3.8-.6 1.1s-.6.4-1 .4c-.5 0-.9-.2-1.2-.5-.3-.5-.4-.9-.3-1.4 0-.6.2-1.2.5-1.7l.9.8zm.3-6c-.3.3-.5.8-.5 1.2 0 .8.5 1.4 1.3 1.5h.1c.8 0 1.5-.6 1.5-1.4v-.1c0-.4-.2-.8-.5-1.2H10a3.08 3.08 0 0 1 .3 1.3c0 .7-.3 1.5-.8 2s-1.2.9-2 .8c-.8 0-1.6-.3-2.1-.9-.5-.5-.7-1.2-.7-1.9 0-.5.1-1 .3-1.4l1.7.1zm-1.6-1.1v-1.5h.8c-.3-.1-.5-.4-.7-.7-.2-.1-.3-.4-.2-.7 0-.2 0-.4.1-.6l1.4.2c-.1.2-.2.4-.2.7 0 .4.1.8.4 1s.7.3 1.1.3h2.5v1.5l-5.2-.2zm.6-9c.5-.6 1.2-.9 2-.9s1.5.3 2 .9c1 1.2 1 3 0 4.2-.5.6-1.2.9-2 .9s-1.5-.3-2-.9c-1-1.2-1-2.9 0-4.2zm2 .7c-.8 0-1.5.6-1.5 1.4a1.54 1.54 0 0 0 1.5 1.5 1.54 1.54 0 0 0 1.5-1.5h0C9.1 7.6 8.5 7 7.7 7h0zM1.6 2.8h8.7v1.5H1.6V2.8zm0-2.8h8.7v1.5H1.6V0z"/></svg>